# Blender 5.0.1
# www.blender.org
mtllib bwoop.mtl
o Cube
v 0.329805 0.586420 -0.329805
v 0.500000 -0.586420 -0.500000
v 0.329805 0.586420 0.329805
v 0.500000 -0.586420 0.500000
v -0.329805 0.586420 -0.329805
v -0.500000 -0.586420 -0.500000
v -0.329805 0.586420 0.329805
v -0.500000 -0.586420 0.500000
v -0.000000 -0.586420 0.609568
v 0.609568 -0.000000 0.609568
v 0.402077 0.586420 -0.000000
v -0.000000 0.586420 -0.402077
v 0.609568 -0.000000 -0.609568
v -0.609568 -0.000000 -0.609568
v -0.402077 0.586420 -0.000000
v -0.609568 -0.000000 0.609568
v -0.609568 -0.586420 -0.000000
v 0.000000 -0.586420 -0.609568
v 0.609568 -0.586420 0.000000
v 0.000000 0.586420 0.402077
v -0.000000 0.000000 -0.839506
v 0.839506 0.000000 0.000000
v -0.000000 0.000000 0.839506
v -0.000000 -0.199013 -0.412158
v -0.839506 0.000000 -0.000000
v -0.144867 -0.894667 0.144867
v 0.500000 0.586420 -0.500000
v 0.609568 0.586420 0.000000
v 0.500000 0.586420 0.500000
v -0.500000 0.586420 -0.500000
v -0.000000 0.586420 -0.609568
v -0.500000 0.586420 0.500000
v -0.609568 0.586420 -0.000000
v -0.000000 0.586420 0.609568
v -0.000000 0.198640 -0.455038
v -0.370489 -0.789175 0.370489
v -0.455038 0.198640 -0.000000
v 0.000000 0.198640 0.455038
v 0.455038 0.198640 -0.000000
v 0.373246 0.198640 -0.373246
v 0.373246 0.198640 0.373246
v -0.373246 0.198640 -0.373246
v -0.373246 0.198640 0.373246
v -0.000000 -0.199013 0.000000
v -0.412158 -0.199013 -0.000000
v 0.000000 -0.199013 0.412158
v 0.412158 -0.199013 -0.000000
v 0.338074 -0.199013 -0.338074
v 0.338074 -0.199013 0.338074
v -0.338074 -0.199013 -0.338074
v -0.338074 -0.199013 0.338074
v -0.000000 -0.789175 0.451676
v 0.370489 -0.789175 0.370489
v -0.370489 -0.789175 -0.370489
v -0.451676 -0.789175 -0.000000
v 0.370489 -0.789175 -0.370489
v 0.000000 -0.789175 -0.451676
v 0.451676 -0.789175 0.000000
v -0.144867 -1.617256 0.144867
v -0.000000 -0.894667 0.176613
v 0.144867 -0.894667 0.144867
v -0.144867 -0.894667 -0.144867
v -0.176613 -0.894667 -0.000000
v 0.144867 -0.894667 -0.144867
v 0.000000 -0.894667 -0.176613
v 0.176613 -0.894667 0.000000
v -0.208284 -1.641613 0.208284
v -0.000000 -1.617256 0.176613
v 0.144867 -1.617256 0.144867
v -0.144867 -1.617256 -0.144867
v -0.176613 -1.617256 -0.000000
v 0.144867 -1.617256 -0.144867
v 0.000000 -1.617256 -0.176613
v 0.176613 -1.617256 0.000000
v -0.453508 -1.690320 0.453508
v -0.000000 -1.641613 0.253927
v 0.208284 -1.641613 0.208284
v -0.208284 -1.641613 -0.208284
v -0.253927 -1.641613 -0.000000
v 0.208284 -1.641613 -0.208284
v 0.000000 -1.641613 -0.253927
v 0.253927 -1.641613 0.000000
v -0.654232 -1.714697 0.654232
v -0.000000 -1.690320 0.552888
v 0.453508 -1.690320 0.453508
v -0.453508 -1.690320 -0.453508
v -0.552888 -1.690320 -0.000000
v 0.453508 -1.690320 -0.453508
v 0.000000 -1.690320 -0.552888
v 0.552888 -1.690320 0.000000
v -0.654232 -1.787833 0.654232
v -0.000000 -1.714697 0.797597
v 0.654232 -1.714697 0.654232
v -0.654232 -1.714697 -0.654232
v -0.797597 -1.714697 -0.000000
v 0.654232 -1.714697 -0.654232
v 0.000000 -1.714697 -0.797597
v 0.797597 -1.714697 0.000000
v -0.422025 -1.804078 0.422025
v -0.000000 -1.787833 0.797597
v 0.654232 -1.787833 0.654232
v -0.654232 -1.787833 -0.654232
v -0.797597 -1.787833 -0.000000
v 0.654232 -1.787833 -0.654232
v 0.000000 -1.787833 -0.797597
v 0.797597 -1.787833 0.000000
v -0.000000 -1.804078 0.514506
v 0.422025 -1.804078 0.422025
v -0.422025 -1.804078 -0.422025
v -0.514506 -1.804078 -0.000000
v 0.422025 -1.804078 -0.422025
v 0.000000 -1.804078 -0.514506
v 0.514506 -1.804078 0.000000
v -0.639982 -1.804078 0.639982
v -0.000000 -1.804078 0.780225
v 0.639982 -1.804078 0.639982
v -0.639982 -1.804078 -0.639982
v -0.780225 -1.804078 -0.000000
v 0.639982 -1.804078 -0.639982
v 0.000000 -1.804078 -0.780225
v 0.780225 -1.804078 0.000000
v 0.000000 -1.759806 -0.514506
v 0.000000 -1.759806 0.000000
v 0.514506 -1.759806 0.000000
v -0.000000 -1.759806 0.514506
v -0.514506 -1.759806 -0.000000
v -0.422025 -1.759806 0.422025
v 0.422025 -1.759806 0.422025
v -0.422025 -1.759806 -0.422025
v 0.422025 -1.759806 -0.422025
vn -0.1999 -0.3577 -0.9122
vn -0.3431 0.2341 -0.9097
vn 0.3431 0.2341 -0.9097
vn 0.1999 -0.3577 -0.9122
vn 0.9122 -0.3577 -0.1999
vn 0.9097 0.2341 -0.3431
vn 0.9097 0.2341 0.3431
vn 0.9122 -0.3577 0.1999
vn 0.1999 -0.3577 0.9122
vn 0.3431 0.2341 0.9097
vn -0.3431 0.2341 0.9097
vn -0.1999 -0.3577 0.9122
vn -0.2122 -0.1322 -0.9682
vn -0.9682 -0.1322 -0.2122
vn -0.2122 -0.1322 0.9682
vn 0.9682 -0.1322 0.2122
vn -0.9122 -0.3577 0.1999
vn -0.9097 0.2341 0.3431
vn -0.9097 0.2341 -0.3431
vn -0.9122 -0.3577 -0.1999
vn 0.1704 -0.6054 0.7775
vn -0.7775 -0.6054 -0.1704
vn 0.1704 -0.6054 -0.7775
vn 0.7775 -0.6054 0.1704
vn -0.0000 1.0000 -0.0000
vn -0.9714 0.1048 -0.2129
vn -0.2129 0.1048 0.9714
vn 0.9714 0.1048 0.2129
vn 0.2129 0.1048 -0.9714
vn 0.9682 -0.1322 -0.2122
vn 0.2122 -0.1322 0.9682
vn -0.9682 -0.1322 0.2122
vn 0.2122 -0.1322 -0.9682
vn -0.2129 0.1048 -0.9714
vn 0.9714 0.1048 -0.2129
vn 0.2129 0.1048 0.9714
vn -0.9714 0.1048 0.2129
vn -0.3570 -0.9308 -0.0782
vn 0.0782 -0.9308 -0.3570
vn 0.3570 -0.9308 0.0782
vn 0.0782 -0.9308 0.3570
vn 0.7775 -0.6054 -0.1704
vn -0.1704 -0.6054 -0.7775
vn -0.7775 -0.6054 0.1704
vn -0.1704 -0.6054 0.7775
vn 0.2141 -0.0000 0.9768
vn -0.9768 -0.0000 0.2141
vn -0.2141 -0.0000 -0.9768
vn 0.9768 -0.0000 -0.2141
vn -0.0782 -0.9308 0.3570
vn 0.3570 -0.9308 -0.0782
vn -0.0782 -0.9308 -0.3570
vn -0.3570 -0.9308 0.0782
vn -0.0657 0.9517 -0.2998
vn 0.2998 0.9517 -0.0657
vn -0.0657 0.9517 0.2998
vn -0.2998 0.9517 -0.0657
vn 0.9768 -0.0000 0.2141
vn 0.2141 -0.0000 -0.9768
vn -0.9768 -0.0000 -0.2141
vn -0.2141 -0.0000 0.9768
vn -0.0352 0.9864 0.1607
vn -0.1607 0.9864 -0.0352
vn 0.0352 0.9864 -0.1607
vn 0.1607 0.9864 0.0352
vn -0.2998 0.9517 0.0657
vn 0.0657 0.9517 0.2998
vn 0.2998 0.9517 0.0657
vn 0.0657 0.9517 -0.2998
vn 0.0217 0.9948 -0.0991
vn 0.0991 0.9948 0.0217
vn 0.0217 0.9948 0.0991
vn -0.0991 0.9948 0.0217
vn 0.1607 0.9864 -0.0352
vn -0.0352 0.9864 -0.1607
vn -0.1607 0.9864 0.0352
vn 0.0352 0.9864 0.1607
vn -0.0991 0.9948 -0.0217
vn -0.0217 0.9948 0.0991
vn 0.0991 0.9948 -0.0217
vn -0.0217 0.9948 -0.0991
vn 0.6755 -0.7224 -0.1480
vn -0.1480 -0.7224 0.6755
vn -0.6755 -0.7224 -0.1480
vn 0.1480 -0.7224 -0.6755
vn -0.1480 -0.7224 -0.6755
vn -0.6755 -0.7224 0.1480
vn 0.1480 -0.7224 0.6755
vn 0.6755 -0.7224 0.1480
vn -0.0000 -1.0000 -0.0000
vn -0.3431 -0.2341 -0.9097
vn -0.1999 0.3577 -0.9122
vn 0.1999 0.3577 -0.9122
vn 0.3431 -0.2341 -0.9097
vn 0.9097 -0.2341 -0.3431
vn 0.9122 0.3577 -0.1999
vn 0.9122 0.3577 0.1999
vn 0.9097 -0.2341 0.3431
vn 0.3431 -0.2341 0.9097
vn 0.1999 0.3577 0.9122
vn -0.1999 0.3577 0.9122
vn -0.3431 -0.2341 0.9097
vn -0.9097 -0.2341 0.3431
vn -0.9122 0.3577 0.1999
vn -0.9122 0.3577 -0.1999
vn -0.9097 -0.2341 -0.3431
vt 0.599213 0.648819
vt 0.599213 0.596112
vt 0.599213 0.084547
vt 0.599213 0.974360
vt 0.500000 0.527904
vt 0.500000 0.468996
s 0
usemtl Material
f 6/1/1 21/1/1 18/1/1
f 30/2/2 21/2/2 14/2/2
f 21/2/3 27/2/3 13/2/3
f 21/1/4 2/1/4 18/1/4
f 2/1/5 22/1/5 19/1/5
f 27/2/6 22/2/6 13/2/6
f 22/2/7 29/2/7 10/2/7
f 22/1/8 4/1/8 19/1/8
f 4/1/9 23/1/9 9/1/9
f 29/2/10 23/2/10 10/2/10
f 23/2/11 32/2/11 16/2/11
f 23/1/12 8/1/12 9/1/12
f 3/2/13 38/2/13 20/2/13
f 3/2/14 39/2/14 41/2/14
f 1/2/15 35/2/15 40/2/15
f 5/2/16 37/2/16 42/2/16
f 8/1/17 25/1/17 17/1/17
f 32/2/18 25/2/18 16/2/18
f 25/2/19 30/2/19 14/2/19
f 25/1/20 6/1/20 17/1/20
f 9/1/21 53/1/21 4/1/21
f 17/1/22 54/1/22 55/1/22
f 18/1/23 56/1/23 57/1/23
f 19/1/24 53/1/24 58/1/24
f 1/2/25 28/2/25 27/2/25
f 3/2/25 28/2/25 11/2/25
f 5/2/25 31/2/25 30/2/25
f 1/2/25 31/2/25 12/2/25
f 7/2/25 33/2/25 32/2/25
f 5/2/25 33/2/25 15/2/25
f 3/2/25 34/2/25 29/2/25
f 7/2/25 34/2/25 20/2/25
f 39/3/26 49/3/26 41/3/26
f 35/3/27 48/3/27 40/3/27
f 37/3/28 50/3/28 42/3/28
f 38/3/29 51/3/29 43/3/29
f 7/2/30 37/2/30 15/2/30
f 5/2/31 35/2/31 12/2/31
f 1/2/32 39/2/32 11/2/32
f 7/2/33 38/2/33 43/2/33
f 48/3/25 44/3/25 47/3/25
f 50/3/25 44/3/25 24/3/25
f 44/3/25 51/3/25 46/3/25
f 44/3/25 49/3/25 47/3/25
f 38/3/34 49/3/34 46/3/34
f 37/3/35 51/3/35 45/3/35
f 35/3/36 50/3/36 24/3/36
f 39/3/37 48/3/37 47/3/37
f 55/1/38 62/1/38 63/1/38
f 57/1/39 64/1/39 65/1/39
f 58/1/40 61/1/40 66/1/40
f 52/1/41 61/1/41 53/1/41
f 19/1/42 56/1/42 2/1/42
f 18/1/43 54/1/43 6/1/43
f 17/1/44 36/1/44 8/1/44
f 9/1/45 36/1/45 52/1/45
f 60/4/46 69/4/46 61/4/46
f 63/4/47 59/4/47 26/4/47
f 65/4/48 70/4/48 62/4/48
f 66/4/49 72/4/49 64/4/49
f 52/1/50 26/1/50 60/1/50
f 58/1/51 64/1/51 56/1/51
f 57/1/52 62/1/52 54/1/52
f 55/1/53 26/1/53 36/1/53
f 70/5/54 81/5/54 78/5/54
f 72/5/55 82/5/55 80/5/55
f 59/5/56 76/5/56 68/5/56
f 70/5/57 79/5/57 71/5/57
f 61/4/58 74/4/58 66/4/58
f 64/4/59 73/4/59 65/4/59
f 62/4/60 71/4/60 63/4/60
f 26/4/61 68/4/61 60/4/61
f 67/5/62 84/5/62 76/5/62
f 78/5/63 87/5/63 79/5/63
f 80/5/64 89/5/64 81/5/64
f 77/5/65 90/5/65 82/5/65
f 59/5/66 79/5/66 67/5/66
f 69/5/67 76/5/67 77/5/67
f 69/5/68 82/5/68 74/5/68
f 72/5/69 81/5/69 73/5/69
f 88/5/70 97/5/70 89/5/70
f 85/5/71 98/5/71 90/5/71
f 85/5/72 92/5/72 93/5/72
f 75/5/73 95/5/73 83/5/73
f 80/5/74 90/5/74 88/5/74
f 78/5/75 89/5/75 86/5/75
f 67/5/76 87/5/76 75/5/76
f 77/5/77 84/5/77 85/5/77
f 92/6/46 101/6/46 93/6/46
f 95/6/47 91/6/47 83/6/47
f 97/6/48 102/6/48 94/6/48
f 98/6/49 104/6/49 96/6/49
f 86/5/78 95/5/78 87/5/78
f 75/5/79 92/5/79 84/5/79
f 88/5/80 98/5/80 96/5/80
f 86/5/81 97/5/81 94/5/81
f 106/6/82 119/6/82 104/6/82
f 100/6/83 114/6/83 115/6/83
f 103/6/84 117/6/84 118/6/84
f 105/6/85 119/6/85 120/6/85
f 93/6/58 106/6/58 98/6/58
f 96/6/59 105/6/59 97/6/59
f 94/6/60 103/6/60 95/6/60
f 83/6/61 100/6/61 92/6/61
f 107/6/48 128/6/48 108/6/48
f 110/6/49 127/6/49 99/6/49
f 112/6/46 129/6/46 109/6/46
f 113/6/47 130/6/47 111/6/47
f 105/6/86 117/6/86 102/6/86
f 103/6/87 114/6/87 91/6/87
f 100/6/88 116/6/88 101/6/88
f 106/6/89 116/6/89 121/6/89
f 99/6/90 115/6/90 114/6/90
f 108/6/90 115/6/90 107/6/90
f 109/6/90 118/6/90 117/6/90
f 99/6/90 118/6/90 110/6/90
f 111/6/90 120/6/90 119/6/90
f 109/6/90 120/6/90 112/6/90
f 108/6/90 121/6/90 116/6/90
f 111/6/90 121/6/90 113/6/90
f 129/6/90 123/6/90 126/6/90
f 130/6/90 123/6/90 122/6/90
f 123/6/90 128/6/90 125/6/90
f 123/6/90 127/6/90 126/6/90
f 108/6/60 124/6/60 113/6/60
f 111/6/61 122/6/61 112/6/61
f 109/6/58 126/6/58 110/6/58
f 99/6/59 125/6/59 107/6/59
f 6/1/91 14/1/91 21/1/91
f 30/2/92 31/2/92 21/2/92
f 21/2/93 31/2/93 27/2/93
f 21/1/94 13/1/94 2/1/94
f 2/1/95 13/1/95 22/1/95
f 27/2/96 28/2/96 22/2/96
f 22/2/97 28/2/97 29/2/97
f 22/1/98 10/1/98 4/1/98
f 4/1/99 10/1/99 23/1/99
f 29/2/100 34/2/100 23/2/100
f 23/2/101 34/2/101 32/2/101
f 23/1/102 16/1/102 8/1/102
f 3/2/13 41/2/13 38/2/13
f 3/2/14 11/2/14 39/2/14
f 1/2/15 12/2/15 35/2/15
f 5/2/16 15/2/16 37/2/16
f 8/1/103 16/1/103 25/1/103
f 32/2/104 33/2/104 25/2/104
f 25/2/105 33/2/105 30/2/105
f 25/1/106 14/1/106 6/1/106
f 9/1/21 52/1/21 53/1/21
f 17/1/22 6/1/22 54/1/22
f 18/1/23 2/1/23 56/1/23
f 19/1/24 4/1/24 53/1/24
f 1/2/25 11/2/25 28/2/25
f 3/2/25 29/2/25 28/2/25
f 5/2/25 12/2/25 31/2/25
f 1/2/25 27/2/25 31/2/25
f 7/2/25 15/2/25 33/2/25
f 5/2/25 30/2/25 33/2/25
f 3/2/25 20/2/25 34/2/25
f 7/2/25 32/2/25 34/2/25
f 39/3/26 47/3/26 49/3/26
f 35/3/27 24/3/27 48/3/27
f 37/3/28 45/3/28 50/3/28
f 38/3/29 46/3/29 51/3/29
f 7/2/30 43/2/30 37/2/30
f 5/2/31 42/2/31 35/2/31
f 1/2/32 40/2/32 39/2/32
f 7/2/33 20/2/33 38/2/33
f 48/3/25 24/3/25 44/3/25
f 50/3/25 45/3/25 44/3/25
f 44/3/25 45/3/25 51/3/25
f 44/3/25 46/3/25 49/3/25
f 38/3/34 41/3/34 49/3/34
f 37/3/35 43/3/35 51/3/35
f 35/3/36 42/3/36 50/3/36
f 39/3/37 40/3/37 48/3/37
f 55/1/38 54/1/38 62/1/38
f 57/1/39 56/1/39 64/1/39
f 58/1/40 53/1/40 61/1/40
f 52/1/41 60/1/41 61/1/41
f 19/1/42 58/1/42 56/1/42
f 18/1/43 57/1/43 54/1/43
f 17/1/44 55/1/44 36/1/44
f 9/1/45 8/1/45 36/1/45
f 60/4/46 68/4/46 69/4/46
f 63/4/47 71/4/47 59/4/47
f 65/4/48 73/4/48 70/4/48
f 66/4/49 74/4/49 72/4/49
f 52/1/50 36/1/50 26/1/50
f 58/1/51 66/1/51 64/1/51
f 57/1/52 65/1/52 62/1/52
f 55/1/53 63/1/53 26/1/53
f 70/5/54 73/5/54 81/5/54
f 72/5/55 74/5/55 82/5/55
f 59/5/56 67/5/56 76/5/56
f 70/5/57 78/5/57 79/5/57
f 61/4/58 69/4/58 74/4/58
f 64/4/59 72/4/59 73/4/59
f 62/4/60 70/4/60 71/4/60
f 26/4/61 59/4/61 68/4/61
f 67/5/62 75/5/62 84/5/62
f 78/5/63 86/5/63 87/5/63
f 80/5/64 88/5/64 89/5/64
f 77/5/65 85/5/65 90/5/65
f 59/5/66 71/5/66 79/5/66
f 69/5/67 68/5/67 76/5/67
f 69/5/68 77/5/68 82/5/68
f 72/5/69 80/5/69 81/5/69
f 88/5/70 96/5/70 97/5/70
f 85/5/71 93/5/71 98/5/71
f 85/5/72 84/5/72 92/5/72
f 75/5/73 87/5/73 95/5/73
f 80/5/74 82/5/74 90/5/74
f 78/5/75 81/5/75 89/5/75
f 67/5/76 79/5/76 87/5/76
f 77/5/77 76/5/77 84/5/77
f 92/6/46 100/6/46 101/6/46
f 95/6/47 103/6/47 91/6/47
f 97/6/48 105/6/48 102/6/48
f 98/6/49 106/6/49 104/6/49
f 86/5/78 94/5/78 95/5/78
f 75/5/79 83/5/79 92/5/79
f 88/5/80 90/5/80 98/5/80
f 86/5/81 89/5/81 97/5/81
f 106/6/82 121/6/82 119/6/82
f 100/6/83 91/6/83 114/6/83
f 103/6/84 102/6/84 117/6/84
f 105/6/85 104/6/85 119/6/85
f 93/6/58 101/6/58 106/6/58
f 96/6/59 104/6/59 105/6/59
f 94/6/60 102/6/60 103/6/60
f 83/6/61 91/6/61 100/6/61
f 107/6/48 125/6/48 128/6/48
f 110/6/49 126/6/49 127/6/49
f 112/6/46 122/6/46 129/6/46
f 113/6/47 124/6/47 130/6/47
f 105/6/86 120/6/86 117/6/86
f 103/6/87 118/6/87 114/6/87
f 100/6/88 115/6/88 116/6/88
f 106/6/89 101/6/89 116/6/89
f 99/6/90 107/6/90 115/6/90
f 108/6/90 116/6/90 115/6/90
f 109/6/90 110/6/90 118/6/90
f 99/6/90 114/6/90 118/6/90
f 111/6/90 112/6/90 120/6/90
f 109/6/90 117/6/90 120/6/90
f 108/6/90 113/6/90 121/6/90
f 111/6/90 119/6/90 121/6/90
f 129/6/90 122/6/90 123/6/90
f 130/6/90 124/6/90 123/6/90
f 123/6/90 124/6/90 128/6/90
f 123/6/90 125/6/90 127/6/90
f 108/6/60 128/6/60 124/6/60
f 111/6/61 130/6/61 122/6/61
f 109/6/58 129/6/58 126/6/58
f 99/6/59 127/6/59 125/6/59
